<svg xmlns="http://www.w3.org/2000/svg" xmlns:xlink="http://www.w3.org/1999/xlink" width="92" height="92.315" viewBox="0 0 92 92.315">
  <defs>
    <clipPath id="clip-path">
      <path id="Tracé_14" data-name="Tracé 14" d="M0,0H92V-92.315H0Z" fill="none"/>
    </clipPath>
  </defs>
  <g id="Groupe_32" data-name="Groupe 32" transform="translate(0 92.315)">
    <g id="Groupe_31" data-name="Groupe 31" clip-path="url(#clip-path)">
      <g id="Groupe_28" data-name="Groupe 28" transform="translate(46)">
        <path id="Tracé_11" data-name="Tracé 11" d="M0,0A46.079,46.079,0,0,0,46-46.157,46.079,46.079,0,0,0,0-92.315,46.079,46.079,0,0,0-46-46.157,46.079,46.079,0,0,0,0,0" fill="#54b578"/>
      </g>
      <g id="Groupe_29" data-name="Groupe 29" transform="translate(54.946 -22.696)">
        <path id="Tracé_12" data-name="Tracé 12" d="M0,0H-16.955A1.648,1.648,0,0,1-18.6-1.648V-2.869a1.648,1.648,0,0,1,1.648-1.648H0A1.648,1.648,0,0,1,1.648-2.869v1.221A1.648,1.648,0,0,1,0,0ZM-1.83,4.517H-15.125a1.648,1.648,0,0,1-1.648-1.648V1.648A1.648,1.648,0,0,1-15.125,0H-1.83A1.648,1.648,0,0,1-.182,1.648V2.869A1.648,1.648,0,0,1-1.83,4.517ZM-4.255,8.992H-12.7a1.648,1.648,0,0,1-1.648-1.648V6.123A1.648,1.648,0,0,1-12.7,4.475h8.445A1.648,1.648,0,0,1-2.607,6.123V7.344A1.648,1.648,0,0,1-4.255,8.992Z" fill="none" stroke="#fff" stroke-linecap="round" stroke-width="1.5"/>
      </g>
      <g id="Groupe_30" data-name="Groupe 30" transform="translate(38.605 -27.206)">
        <path id="Tracé_13" data-name="Tracé 13" d="M0,0V-4.046A16.581,16.581,0,0,1-8.724-18.664,16.546,16.546,0,0,1,7.793-35.239,16.546,16.546,0,0,1,24.309-18.664a16.581,16.581,0,0,1-8.764,14.64V-.276M4.487,0V-16.545h6.707V0M4.487-16.545,7.793-23.66l3.4,7.115M16.551,7.28a27.258,27.258,0,0,0,4.543-2.066l4.4,3.2a1.509,1.509,0,0,0,1.963-.161l7.061-7.16a1.509,1.509,0,0,0,.131-1.967L31.4-5.187a27.086,27.086,0,0,0,2.408-5.825l5.534-.82a1.51,1.51,0,0,0,1.288-1.493V-23.381a1.509,1.509,0,0,0-1.284-1.493l-5.5-.828a27.064,27.064,0,0,0-2.472-6l3.273-4.349a1.509,1.509,0,0,0-.131-1.967l-7.061-7.16a1.509,1.509,0,0,0-1.963-.161L21.029-42.1A27.037,27.037,0,0,0,15.1-44.579l-.8-5.392A1.51,1.51,0,0,0,12.8-51.259H2.747a1.508,1.508,0,0,0-1.492,1.285l-.8,5.316a27.076,27.076,0,0,0-6.039,2.465l-4.327-3.148a1.509,1.509,0,0,0-1.963.161l-7.061,7.16a1.509,1.509,0,0,0-.131,1.967l3.1,4.119a27.04,27.04,0,0,0-2.618,6.281l-5.174.779a1.509,1.509,0,0,0-1.284,1.493v10.056a1.51,1.51,0,0,0,1.288,1.493l5.207.772a27.023,27.023,0,0,0,2.554,6.1L-19.067-.874a1.509,1.509,0,0,0,.131,1.967l7.061,7.16a1.509,1.509,0,0,0,1.963.161l4.263-3.1a27.069,27.069,0,0,0,5.38,2.3" fill="none" stroke="#fff" stroke-linecap="round" stroke-linejoin="round" stroke-width="1.5"/>
      </g>
    </g>
  </g>
</svg>
